<?xml version="1.0" encoding="utf-8"?>
<!-- Generator: Adobe Illustrator 25.2.1, SVG Export Plug-In . SVG Version: 6.00 Build 0)  -->
<svg version="1.1" id="Layer_1" xmlns="http://www.w3.org/2000/svg" xmlns:xlink="http://www.w3.org/1999/xlink" x="0px" y="0px"
	 viewBox="0 0 45 45" style="enable-background:new 0 0 45 45;" xml:space="preserve">
<style type="text/css">
	.st0{fill:#FFFFFF;}
</style>
<g>
	<rect x="17.7" y="10.9" transform="matrix(0.7072 -0.7071 0.7071 0.7072 -3.0263 25.4408)" class="st0" width="23" height="11"/>
	<path class="st0" d="M44.1,3.7l-2.5-2.5c-1.4-1.4-3.6-1.4-5,0l-1.8,1.7l7.8,7.8L44.4,9C45.8,7.6,45.5,5.1,44.1,3.7z"/>
	<polygon class="st0" points="16,22.2 16,30 23.2,30 	"/>
	<path class="st0" d="M29,40H5V16h12.6l5-5H3.5C1.8,11,0,11.8,0,13.5v28C0,43.2,1.8,45,3.5,45h28c1.7,0,2.5-1.8,2.5-3.5V23.6l-5,5
		V40z"/>
</g>
</svg>
