<?xml version="1.0" encoding="utf-8"?>
<!-- Generator: Adobe Illustrator 25.2.1, SVG Export Plug-In . SVG Version: 6.00 Build 0)  -->
<svg version="1.1" id="Layer_1" xmlns="http://www.w3.org/2000/svg" xmlns:xlink="http://www.w3.org/1999/xlink" x="0px" y="0px"
	 viewBox="0 0 24 24" style="enable-background:new 0 0 24 24;" xml:space="preserve">
<style type="text/css">
	.st0{fill:#FFFFFF;}
</style>
<path class="st0" d="M17.4,6.6c-0.8-0.8-2-0.8-2.8,0L12,9.2L9.4,6.6c-0.8-0.8-2-0.8-2.8,0c-0.8,0.8-0.8,2,0,2.8L9.2,12l-2.6,2.6
	c-0.8,0.8-0.8,2,0,2.8C7,17.8,7.5,18,8,18s1-0.2,1.4-0.6l2.6-2.6l2.6,2.6C15,17.8,15.5,18,16,18c0.5,0,1-0.2,1.4-0.6
	c0.8-0.8,0.8-2,0-2.8L14.8,12l2.6-2.6C18.2,8.6,18.2,7.4,17.4,6.6z"/>
</svg>
